<?xml version="1.0" encoding="UTF-8"?>
<svg version="1.1" xmlns="http://www.w3.org/2000/svg" width="200" height="200">
<path d="M0 0 C3.125 0.375 3.125 0.375 5 2.390625 C6.93518469 4.59550515 6.93518469 4.59550515 9.5078125 4.6328125 C10.41273437 4.58898437 11.31765625 4.54515625 12.25 4.5 C22.82090907 5.03309628 34.55036843 11.91578733 41.625 19.6875 C43.65396458 22.39828465 45.20035358 25.08736829 46.125 28.375 C47.10339844 28.32279297 47.10339844 28.32279297 48.1015625 28.26953125 C53.55980317 28.1004707 57.45960121 28.188874 62.125 31.375 C64.46302929 33.63760899 65.10599956 34.61498249 65.1875 37.875 C63.62539665 41.55053729 61.62511678 42.49993744 58.125 44.375 C55.15996898 45.50499554 52.16924215 46.4820223 49.125 47.375 C49.99125 48.47908203 49.99125 48.47908203 50.875 49.60546875 C51.6175 50.58128906 52.36 51.55710938 53.125 52.5625 C53.8675 53.52542969 54.61 54.48835938 55.375 55.48046875 C57.20691159 58.51048323 57.61654548 59.9157487 57.125 63.375 C56.125 64.375 56.125 64.375 54.27734375 64.47265625 C52.2265625 64.44010417 50.17578125 64.40755208 48.125 64.375 C48.310625 65.15875 48.49625 65.9425 48.6875 66.75 C49.16162126 70.67843332 48.84507009 74.06519859 48.375 77.97265625 C48.0583719 80.54244732 48.0583719 80.54244732 48.1875 83.8125 C48.125 86.375 48.125 86.375 46.125 89.375 C40.84902266 90.64123456 36.39754211 90.20750665 31.125 89.375 C30.23070626 90.9475165 29.36012573 92.53353741 28.5 94.125 C28.01273437 95.00671875 27.52546875 95.8884375 27.0234375 96.796875 C25.86684054 99.28491683 25.86684054 99.28491683 26.7890625 101.453125 C27.70645826 102.77288733 28.6737719 104.05889664 29.6796875 105.3125 C31.36663576 107.71982076 31.77690104 109.48479542 32.25 112.375 C32.415 113.34953125 32.58 114.3240625 32.75 115.328125 C33.11389765 118.28479341 33.1856602 121.14928427 33.25 124.125 C34.02570636 134.94257773 40.94016795 144.65130554 48.125 152.375 C48.125 153.035 48.125 153.695 48.125 154.375 C53.13227683 153.85700585 57.34822933 153.0011347 62.125 151.375 C63.72214844 151.32859375 63.72214844 151.32859375 65.3515625 151.28125 C70.69975487 149.996798 72.95086308 146.95709908 76.4375 142.875 C77.66062049 141.48769372 78.8857831 140.10218439 80.11328125 138.71875 C80.91052612 137.79352539 80.91052612 137.79352539 81.72387695 136.84960938 C83.125 135.375 83.125 135.375 85.125 134.375 C84.49138874 126.93006765 81.9135636 120.80994054 77.5625 114.75 C74.34418285 109.9029004 73.82369744 104.40474532 72.99609375 98.765625 C72.03222358 95.01387924 71.21586671 93.65075319 68.125 91.375 C65.7942706 90.48530411 65.7942706 90.48530411 63.375 90.125 C62.57578125 89.97546875 61.7765625 89.8259375 60.953125 89.671875 C60.34984375 89.57390625 59.7465625 89.4759375 59.125 89.375 C59.125 87.395 59.125 85.415 59.125 83.375 C75.07697989 86.32551658 75.07697989 86.32551658 79.125 91.375 C81.42317758 95.59687534 83.3417695 99.91365776 85.125 104.375 C85.31835938 103.55515625 85.51171875 102.7353125 85.7109375 101.890625 C85.97132813 100.81296875 86.23171875 99.7353125 86.5 98.625 C86.75523437 97.55765625 87.01046875 96.4903125 87.2734375 95.390625 C88.00033541 92.81647278 88.8276224 90.69899814 90.125 88.375 C94.97653375 89.15750544 99.4945246 90.78276635 104.125 92.375 C105.300625 92.766875 106.47625 93.15875 107.6875 93.5625 C108.491875 93.830625 109.29625 94.09875 110.125 94.375 C110.29784677 95.85345724 110.4628446 97.33283199 110.625 98.8125 C110.7178125 99.63621094 110.810625 100.45992188 110.90625 101.30859375 C110.9784375 102.32050781 111.050625 103.33242187 111.125 104.375 C111.17591797 105.02919922 111.22683594 105.68339844 111.27929688 106.35742188 C111.56061265 112.8276846 109.81921274 117.97400728 107.625 124 C103.64228875 135.69621232 102.51562554 145.87239792 105.6875 158.03125 C106.84197977 164.21596303 106.12392911 168.2578137 103 173.6875 C102.41992188 174.71488281 101.83984375 175.74226562 101.2421875 176.80078125 C100.90162638 177.34846979 100.56106525 177.89615833 100.2101841 178.4604435 C99.03907131 180.42300305 99.03907131 180.42300305 98.13959312 182.87163353 C96.7671904 185.91444022 95.50148281 188.01477139 93.125 190.375 C88.09399681 191.86403798 83.12876282 191.64156512 77.93994141 191.51025391 C76.3824278 191.50743142 74.8249009 191.50901994 73.26739502 191.51467896 C69.04770563 191.51754475 64.83086718 191.45882262 60.61183977 191.38893938 C56.19973807 191.3263613 51.78756856 191.32054723 47.37509155 191.3086853 C39.02357679 191.27762204 30.67337339 191.19558831 22.32243574 191.09519041 C12.81359428 190.98335716 3.30468966 190.92841964 -6.20464587 190.87823606 C-25.76216212 190.77375172 -45.31849841 190.59789764 -64.875 190.375 C-64.43125554 186.46208333 -63.97707407 182.55044127 -63.52124023 178.63891602 C-63.33601933 177.00396053 -63.33601933 177.00396053 -63.14705658 175.33597565 C-61.91487891 164.84177341 -59.89443371 154.58198058 -57.59594727 144.27514648 C-56.92506986 141.2565713 -56.27905326 138.23333492 -55.63476562 135.20898438 C-55.20716835 133.25228911 -54.77818568 131.29589595 -54.34765625 129.33984375 C-54.15897476 128.45336655 -53.97029327 127.56688934 -53.77589417 126.65354919 C-51.1247237 114.95104962 -45.65292922 107.15197954 -36 100.0625 C-29.12723357 94.8431636 -24.30952264 89.21323146 -19.6875 81.9375 C-17.84002807 79.32555693 -16.75460429 78.56656039 -13.875 77.375 C-11.75587455 73.1367491 -12.62303527 68.25687654 -13.875 63.875 C-14.205 63.05 -14.535 62.225 -14.875 61.375 C-15.44347656 61.519375 -16.01195312 61.66375 -16.59765625 61.8125 C-21.49762205 62.99045505 -25.8395312 63.58927527 -30.875 63.375 C-31.205 62.715 -31.535 62.055 -31.875 61.375 C-29.87933139 57.14418254 -28.70579333 54.9585713 -24.81640625 52.2265625 C-22.12310968 50.04945024 -21.3827083 48.4854349 -20.84375 45.07421875 C-20.6678684 43.40559848 -20.5125792 41.73471407 -20.375 40.0625 C-18.93846906 27.75678161 -16.57118248 15.8413596 -6.875 7.375 C-6.215 7.375 -5.555 7.375 -4.875 7.375 C-4.91625 6.59125 -4.9575 5.8075 -5 5 C-4.81646336 1.14573066 -3.75137379 0.48930962 0 0 Z " fill="#000000" transform="translate(72.875,4.625)"/>
</svg>
